<?xml version="1.0" encoding="utf-8"?>
<!-- Generator: Adobe Illustrator 19.0.0, SVG Export Plug-In . SVG Version: 6.00 Build 0)  -->
<svg version="1.1" id="Breaking_Bad" xmlns="http://www.w3.org/2000/svg" xmlns:xlink="http://www.w3.org/1999/xlink" x="0px"
	 y="0px" viewBox="0 0 477 279" style="enable-background:new 0 0 477 279;" xml:space="preserve">
<style type="text/css">
	.st0{fill:url(#SVGID_1_);}
	.st1{fill:#FFFFFF;}
	.st2{fill:url(#SVGID_2_);}
</style>
<g>
	<g>
		<linearGradient id="SVGID_1_" gradientUnits="userSpaceOnUse" x1="41.6758" y1="21.6553" x2="160.6914" y2="140.6709">
			<stop  offset="0" style="stop-color:#0A443C"/>
			<stop  offset="1" style="stop-color:#007031"/>
		</linearGradient>
		<rect x="41.7" y="21.7" class="st0" width="119" height="119"/>
		<path class="st1" d="M40.9,141.5V20.8h120.7v119.8v0.8H40.9L40.9,141.5z M160.7,140.7v-0.8V140.7L160.7,140.7z M42.5,139.9h117.4
			V22.5H42.5V139.9L42.5,139.9z"/>
	</g>
	<g>
		<path class="st1" d="M59.9,48.9H91c10.9,0,19.6,5.5,19.6,16.4c0,7.2-4,12-11.2,13.4v0.2c9.1,0.9,14.2,8.5,14.2,16.4
			c0,16.5-11.8,19.8-25.5,19.8H59.9V48.9z M72.3,75.4h14.8c5.5,0,10.5-2.1,10.5-8.5c0-5-3.3-8.3-10.5-8.3H72.3V75.4z M72.3,104.1
			h16.2c7.5,0,12.1-2.3,12.1-9.2c0-7.4-4.6-10.1-12.2-10.1H72.3V104.1z"/>
		<path class="st1" d="M121.4,68h11.3v6.5h0.2c2.7-5.4,7.9-7.6,14.5-7.6v11.5c-7.7,0-14.7,3.6-14.7,13.8V115h-11.3V68z"/>
	</g>
	<g>
		<path class="st1" d="M135,38.1h1c1,0,1.8-0.5,1.8-1.5c0-1.1-0.7-1.8-1.8-1.8c-1.4,0-1.8,1.2-1.9,2.3l-2.6-0.6c0.4-2.6,2.1-4,4.8-4
			c2.2,0,4.3,1.2,4.3,3.6c0,1.6-0.8,2.5-2.2,2.8v0c1.7,0.4,2.5,1.6,2.6,3.3c0,2.8-2.3,4.2-4.9,4.2c-2.6,0-4.7-1.2-4.7-4.7h2.5
			c0,1.5,0.7,2.4,2.2,2.4c1.3,0,2-0.9,2-2.1c0-1.5-1-2-2-2h-1V38.1z"/>
		<path class="st1" d="M143.6,32.7h7.6l-0.3,2.3h-5.2l-0.4,2.8c0.7-0.6,1.5-1,2.4-1c2.9,0,4.3,2.1,4.3,4.6c0,3.1-2.2,4.9-5,4.9
			c-2.5,0-4.6-1.3-4.7-4l2.8-0.2c0,1.1,0.8,2.1,2,2.1c1.6,0,2.2-1.4,2.2-2.8c0-1.8-0.9-2.5-2.3-2.5c-1,0-1.6,0.4-1.9,1.3l-2.3-0.2
			L143.6,32.7z"/>
	</g>
	<path class="st1" d="M181.5,90.7c-3.2,0-3.6,0.1-3.6,2.6c0,7.4,6.1,14.2,14.3,14.2c3.4,0,6.5-1,9.5-3.1c2.1-1.5,3.5-3.2,5.3-3.2
		c1.4,0,2.4,1,2.4,2.3c0,1.4-1.5,3.7-4.3,6c-5,4.1-9.7,6.2-16,6.2c-13.3,0-23.2-10.3-23.2-23.6c0-14.6,10.1-25,24.3-25
		c12,0,19.5,7.3,19.5,19c0,4.3-1.1,4.7-5.2,4.7h-22.4C181.8,90.7,181.7,90.7,181.5,90.7z M196.3,85.3c2.2,0,2.9-0.3,2.9-1.7
		c0-5.8-4.3-10.6-10.6-10.6c-6.1,0-10.3,4.9-10.3,10.6c0,1.5,0.6,1.7,2.8,1.7H196.3z"/>
	<path class="st1" d="M255.3,107.1c2.8,0.8,4.4,0.8,4.4,2.7c0,2.8-4.5,5.9-10.5,5.9c-3.5,0-5.9-4.9-6.8-4.9c-1.5,0-5.5,4.9-13.7,4.9
		c-9.1,0-15.2-5.8-15.2-14.3c0-9.8,7.3-15.9,20.5-15.9c2.4,0,5.3,0.3,8.7,0.8v-4.9c0-5.5-2.5-8.5-6.9-8.5c-3.1,0-5.7,1.4-8.1,4.1
		c-1.9,2.2-3.1,4.8-7,4.8c-2.5,0-4-1.7-4-4.4c0-5.3,7.1-10.4,19.3-10.4c7.1,0,12,1.9,14.7,5.3c2.4,3,2.6,7.6,2.6,14.2v15
		C253.4,104.8,253.9,106.7,255.3,107.1z M236,91.5c-6.8,0-10.6,3.2-10.6,8.4c0,4.9,3.4,8.2,9,8.2c6.3,0,8.4-2.7,8.4-8.9v-6.9
		C240.3,91.8,238,91.5,236,91.5z"/>
	<path class="st1" d="M278.2,83.1c0,1.9,0.1,2.8,0.9,2.8c0.5,0,2.4-1.2,5.3-3.8c3.8-3.5,5.9-5.6,5.9-6.7c0-1.2-3.5-1.1-3.5-3.7
		c0-3.1,3.8-3.8,11.6-3.8c5.7,0,8.5,1.1,8.5,3.5c0,3.6-4.4,2.5-8.3,4.8c-1.8,1.1-3.9,3.2-6.4,5.8c-1.3,1.3-2,2.1-2,2.7
		c0,0.9,1.6,3,4.6,6.9c6.5,8.4,10.9,13.3,13.1,14.9c3.1,2.2,7.1,1.5,7.1,4.6c0,2.7-2.9,3.8-9.3,3.8c-2.7,0-4.4-0.3-5-0.5
		c-2.6-0.9-4.7-4.2-8.4-9c-8.1-10.3-12.3-15.7-13.2-15.7c-0.8,0-0.9,0.7-0.9,2.5c0,0.5,0,1.2,0,2c0,7.7,0.2,12.1,1.3,13.4
		c1.3,1.5,4.8,1,4.8,3.9c0,2.7-3.4,3.3-10.7,3.3c-8.2,0-11.6-0.5-11.6-3.6c0-2.1,1.9-2.1,3.5-2.9c1.9-1.1,2.3-4.4,2.3-10.6
		c0-3.5-0.1-7.7-0.1-13c0-2,0-3.9,0-5.8c0-13.7-0.1-18.9-1.3-20.3c-0.7-0.8-2.3-1-4.2-1.7c-1.5-0.5-2.1-0.8-2.1-2.2
		c0-1.9,1.7-2.7,5.1-3.8c5.3-1.8,9.4-2.4,11.1-2.4c2,0,2.6,1.2,2.6,3.9c0,4.9-0.5,9.7-0.5,18.9V83.1z"/>
	<path class="st1" d="M333.7,99.5c0,5,0.3,7.8,1.8,8.6c2.1,1.2,4.1,0.9,4.1,3.4c0,2.7-3.3,3.3-10.6,3.3c-8.2,0-11.7-0.5-11.7-3.6
		c0-2.1,1.9-2.1,3.5-2.9c1.8-1,2.2-3.3,2.2-7.3c0-1.9-0.1-4.1-0.1-6.9c0-1.7,0-3.4,0-4.9c0-7.5-0.1-11.5-1.7-12.3
		c-2.3-1.2-5-1-5-3.3c0-1.5,1.3-2.5,3.8-3.5c6.3-2.5,11.1-3.1,12-3.1c1.8,0,2.4,1.3,2.4,3.9c0,1.2,0,2.8-0.1,4.9l-0.4,11.9
		C333.8,91.8,333.7,95.7,333.7,99.5z M327.7,49.9c4.2,0,7.1,2.7,7.1,6c0,3.3-3.1,6.1-7.6,6.1c-4.1,0-7-2.5-7-5.7
		C320.1,53,323.4,49.9,327.7,49.9z"/>
	<path class="st1" d="M373.9,67c4.8,0,9.1,2.3,11.7,5.4c3.7,4.4,3.9,9.8,3.9,17.1c0,3.5,0,5.6,0,6.3c0,2.2-0.1,4-0.1,5.7
		c0,3.7,0.3,5.7,2.1,6.7c1.6,0.8,3.5,0.8,3.5,2.9c0,3.1-3.5,3.5-11.5,3.5c-7.5,0-11-0.5-11-3.2c0-2.5,2-2.2,4.1-3.4
		c1.6-0.9,1.9-4,1.9-9.7c0-14.8-0.2-22.4-8.7-22.4c-3.3,0-6.6,2.1-8.3,5.5c-1.7,3.5-1.8,9.6-1.8,18.5c0,4.6,0.1,7.2,1.7,8.1
		c2.1,1.2,4.1,0.9,4.1,3.4c0,2.7-3.3,3.3-10.6,3.3c-8.2,0-11.7-0.5-11.7-3.6c0-2.1,1.9-2.1,3.5-2.9c1.8-1,2.2-3.3,2.2-7.3
		c0-1.9-0.1-4.1-0.1-6.9c0-1.7,0-3.4,0-4.9c0-7.5-0.1-11.5-1.7-12.3c-2.3-1.2-5-1-5-3.3c0-1.5,1.3-2.5,3.8-3.5
		c6-2.3,10.4-2.9,11.6-2.9c1.7,0,2.5,0.8,2.5,2.9v2.6c0,0.3,0,0.5,0,0.5c0,0.4,0,0.6,0.4,0.6c0.2,0,0.4-0.1,0.5-0.2l1.1-1
		C364.7,70.1,367.2,67,373.9,67z"/>
	<path class="st1" d="M398.7,84.7c0-10.1,8.4-17.7,20.3-17.7c3.2,0,7.2,0.7,12.1,1.8c2.5,0,5.1-1.3,8.7-3.8c1.3,0.8,2,1.9,2,3
		c0,2.6-1.9,5.1-5.7,7.1c1.3,2.5,1.9,4.9,1.9,7.6c0,10.1-8.1,17.4-20.5,17.4c-3.4,0-6.5-0.5-9.4-1.5c-1.3,1.4-1.9,2.6-1.9,3.7
		c0,3,3,4.3,9.1,4.3c4.7,0,9.4-1,14.4-1c8.7,0,13.4,3.7,13.4,10.2c0,9.5-10.3,17.3-25.9,17.3c-12.7,0-20.7-6.1-20.7-12.4
		c0-3.4,2.2-5.7,6.6-8.3c-3.7-1.3-5.7-3.8-5.7-6.9c0-3.2,2.3-6.2,6.8-9C400.5,93.5,398.7,89.5,398.7,84.7z M406.5,119.9
		c0,4.1,4.5,7.2,12.4,7.2c8.8,0,14.5-3.9,14.5-8.3c0-2.9-2.1-4.7-6.1-4.7c-2.8,0-7.1,0.9-12.5,0.9c-1.8,0-3.8-0.1-5.9-0.4
		C407.3,116.2,406.5,117.9,406.5,119.9z M418.1,94.1c5.2,0,9.2-4.2,9.2-10.5c0-6.5-3.9-10.7-9.1-10.7c-4.8,0-8.6,4.3-8.6,10.6
		C409.6,90,413.1,94.1,418.1,94.1z"/>
	<g>
		<path class="st1" d="M319.8,229.1c0-0.8-0.2-1.2-0.4-1.2c-0.3,0-1.4,1-3.5,2.6c-3.6,2.7-7.1,4-11,4c-11.4,0-19.7-8.9-19.7-22.6
			c0-15.2,9.4-25.7,22.6-25.7c6.4,0,10.4,2.8,11.1,2.8c0.5,0,0.6-0.8,0.6-2.3v-3.3c0-4.2-0.5-5.6-2.9-6.4c-2.2-0.7-4.1-0.7-4.1-2.8
			c0-2,1.9-2.9,5.8-4.3c4-1.5,7.2-2,9.5-2c2.1,0,2.9,1.1,2.9,3.9c0,1.6-0.5,9.7-0.5,29c0,15.7,0.1,23.7,1.4,24.6
			c2,1.5,5.7,0.5,5.7,3.3c0,2.2-2.5,2.9-7.2,4.5c-3.2,1.1-6.5,1.5-7.7,1.5c-1.7,0-2.5-0.9-2.5-3V229.1z M319.3,202.7
			c0-2.6,0-4.3-0.9-5.5c-1.9-2.6-5.9-4.7-9.9-4.7c-6.7,0-11.4,5.8-11.4,15.9c0,10.9,5.3,17.7,12,17.7c6.5,0,10.2-3.6,10.2-10.6
			V202.7z"/>
	</g>
	<g>
		<linearGradient id="SVGID_2_" gradientUnits="userSpaceOnUse" x1="279.7256" y1="259.6289" x2="160.708" y2="140.6113">
			<stop  offset="0" style="stop-color:#0A443C"/>
			<stop  offset="1" style="stop-color:#007031"/>
		</linearGradient>
		<rect x="160.7" y="140.6" class="st2" width="119" height="119"/>
		<path class="st1" d="M159.9,260.4V139.8h120.7v119.8v0.8H159.9L159.9,260.4z M279.7,259.6v-0.8V259.6L279.7,259.6z M161.5,258.8
			h117.4V141.4H161.5V258.8L161.5,258.8z"/>
	</g>
	<g>
		<path class="st1" d="M169.6,167.8h31.1c10.9,0,19.6,5.5,19.6,16.4c0,7.2-4,12-11.2,13.4v0.2c9.1,0.9,14.2,8.5,14.2,16.4
			c0,16.5-11.8,19.8-25.6,19.8h-28.2V167.8z M182.1,194.4h14.8c5.5,0,10.5-2.1,10.5-8.5c0-5-3.3-8.3-10.5-8.3h-14.8V194.4z
			 M182.1,223h16.2c7.5,0,12.1-2.3,12.1-9.2c0-7.4-4.6-10.1-12.2-10.1h-16.1V223z"/>
		<path class="st1" d="M270.4,226.1c0,4.8,1.1,6.9,1.8,7.9h-12c-0.7-1.1-1.1-3.1-1.1-4.3c-4.4,3.5-9.5,5.4-15.3,5.4
			c-8.9,0-16-5.7-16-14.8c0-9.2,7.3-13.3,14.3-14.7l4.7-0.9c4.1-0.8,9.4-1.8,12.3-2.8v-1.4c0-4.6-4-5.9-8.9-5.9
			c-6.6,0-8.7,2-8.7,7.1l-11.3-0.5c0-11.1,9.8-15.3,20.1-15.3c10.1,0,20.3,2,20.3,15.4V226.1z M259.1,210.5
			c-1.5,0.7-3.3,1.3-5.4,1.7l-6.2,1.3c-4.3,0.8-7.8,2-7.8,6.5c0,3.5,3.2,5.9,7.3,5.9c5.3,0,12.1-2.6,12.1-8.6V210.5z"/>
	</g>
	<g>
		<path class="st1" d="M251.1,150.9h7.6l-0.3,2.3h-5.2l-0.4,2.8c0.7-0.6,1.5-1,2.4-1c2.9,0,4.3,2.1,4.3,4.6c0,3.1-2.2,4.9-5,4.9
			c-2.5,0-4.6-1.3-4.7-4l2.8-0.2c0,1.1,0.8,2.1,2,2.1c1.6,0,2.2-1.4,2.2-2.8c0-1.8-0.9-2.5-2.3-2.5c-1,0-1.5,0.4-1.9,1.3l-2.3-0.2
			L251.1,150.9z"/>
		<path class="st1" d="M267.6,154.4c-0.1-1-0.7-1.6-1.6-1.6c-1.9,0-2.4,2.5-2.4,4.1h0c0.3-0.5,1.1-1.3,2.6-1.3c2.5,0,4,1.8,4,4.5
			c0,2.5-1.8,4.5-4.5,4.5c-3.9,0-4.8-3.5-4.8-6.7c0-4.3,1.7-7.3,5.1-7.3c2.3,0,3.8,1.2,4.2,3.4L267.6,154.4z M263.8,160.2
			c0,1.4,0.7,2.2,2,2.2c1.3,0,2-0.8,2-2.2c0-1.4-0.7-2.2-2-2.2C264.5,158,263.8,158.8,263.8,160.2z"/>
	</g>
</g>
</svg>
